<mxfile host="app.diagrams.net" modified="2020-11-26T15:40:22.407Z" agent="5.0 (Windows NT 10.0; Win64; x64) AppleWebKit/537.36 (KHTML, like Gecko) Chrome/86.0.4240.114 YaBrowser/20.11.1.81 Yowser/2.5 Safari/537.36" etag="j-_3poDZMIZZpfSCoB07" version="13.10.3" type="github">
  <diagram id="C5RBs43oDa-KdzZeNtuy" name="Page-1">
    <mxGraphModel dx="582" dy="1556" grid="1" gridSize="10" guides="1" tooltips="1" connect="1" arrows="1" fold="1" page="1" pageScale="1" pageWidth="827" pageHeight="1169" math="0" shadow="0">
      <root>
        <mxCell id="WIyWlLk6GJQsqaUBKTNV-0" />
        <mxCell id="WIyWlLk6GJQsqaUBKTNV-1" parent="WIyWlLk6GJQsqaUBKTNV-0" />
        <mxCell id="f7wdTwSCjIjWg6UEDFdK-22" value="" style="shape=mxgraph.signs.transportation.seat_belt;html=1;pointerEvents=1;fillColor=#000000;strokeColor=none;verticalLabelPosition=bottom;verticalAlign=top;align=center;" parent="WIyWlLk6GJQsqaUBKTNV-1" vertex="1">
          <mxGeometry x="70" y="60" width="50" height="60" as="geometry" />
        </mxCell>
        <mxCell id="f7wdTwSCjIjWg6UEDFdK-23" value="" style="pointerEvents=1;shadow=0;dashed=0;html=1;strokeColor=none;fillColor=#505050;labelPosition=center;verticalLabelPosition=bottom;verticalAlign=top;outlineConnect=0;align=center;shape=mxgraph.office.users.dynamic_distribution_group;" parent="WIyWlLk6GJQsqaUBKTNV-1" vertex="1">
          <mxGeometry x="750" y="220" width="58" height="59" as="geometry" />
        </mxCell>
        <mxCell id="f7wdTwSCjIjWg6UEDFdK-59" value="" style="endArrow=none;dashed=1;html=1;exitX=0.5;exitY=0;exitDx=0;exitDy=0;exitPerimeter=0;" parent="WIyWlLk6GJQsqaUBKTNV-1" source="ywaL2FlmHNc8roGdRpwy-1" edge="1">
          <mxGeometry width="50" height="50" relative="1" as="geometry">
            <mxPoint x="328" y="320" as="sourcePoint" />
            <mxPoint x="410" y="280" as="targetPoint" />
          </mxGeometry>
        </mxCell>
        <mxCell id="L67WB2BqQXpDFs7ZTnaK-0" value="&lt;font style=&quot;font-size: 10px&quot;&gt;Купить билет&lt;/font&gt;" style="ellipse;whiteSpace=wrap;html=1;" parent="WIyWlLk6GJQsqaUBKTNV-1" vertex="1">
          <mxGeometry x="160" y="10" width="90" height="40" as="geometry" />
        </mxCell>
        <mxCell id="L67WB2BqQXpDFs7ZTnaK-1" value="&lt;font style=&quot;font-size: 10px&quot;&gt;Сдать билет&lt;/font&gt;" style="ellipse;whiteSpace=wrap;html=1;" parent="WIyWlLk6GJQsqaUBKTNV-1" vertex="1">
          <mxGeometry x="160" y="60" width="90" height="40" as="geometry" />
        </mxCell>
        <mxCell id="L67WB2BqQXpDFs7ZTnaK-2" value="&lt;font style=&quot;font-size: 10px&quot;&gt;Получить скидку&lt;/font&gt;" style="ellipse;whiteSpace=wrap;html=1;" parent="WIyWlLk6GJQsqaUBKTNV-1" vertex="1">
          <mxGeometry x="160" y="110" width="90" height="40" as="geometry" />
        </mxCell>
        <mxCell id="L67WB2BqQXpDFs7ZTnaK-4" value="&lt;span style=&quot;font-size: 10px&quot;&gt;Наличие свободных мест&amp;nbsp;&lt;/span&gt;" style="ellipse;whiteSpace=wrap;html=1;" parent="WIyWlLk6GJQsqaUBKTNV-1" vertex="1">
          <mxGeometry x="309" y="-50" width="105" height="50" as="geometry" />
        </mxCell>
        <mxCell id="L67WB2BqQXpDFs7ZTnaK-5" value="&lt;span style=&quot;font-size: 10px&quot;&gt;Наличие паспорта&lt;/span&gt;" style="ellipse;whiteSpace=wrap;html=1;" parent="WIyWlLk6GJQsqaUBKTNV-1" vertex="1">
          <mxGeometry x="309" y="5" width="105" height="50" as="geometry" />
        </mxCell>
        <mxCell id="L67WB2BqQXpDFs7ZTnaK-8" value="&lt;span style=&quot;font-size: 10px&quot;&gt;Наличие студенческого/пенсионного билета&lt;/span&gt;" style="ellipse;whiteSpace=wrap;html=1;" parent="WIyWlLk6GJQsqaUBKTNV-1" vertex="1">
          <mxGeometry x="297.25" y="120" width="128.5" height="60" as="geometry" />
        </mxCell>
        <mxCell id="L67WB2BqQXpDFs7ZTnaK-6" value="&lt;span style=&quot;font-size: 10px&quot;&gt;Удержание 1% от стоимости билета&lt;/span&gt;" style="ellipse;whiteSpace=wrap;html=1;" parent="WIyWlLk6GJQsqaUBKTNV-1" vertex="1">
          <mxGeometry x="309" y="60" width="105" height="50" as="geometry" />
        </mxCell>
        <mxCell id="p_SPjtKvWzL-hsWBa0IK-1" value="&lt;span style=&quot;font-size: 10px&quot;&gt;Продать билет&lt;/span&gt;" style="ellipse;whiteSpace=wrap;html=1;" parent="WIyWlLk6GJQsqaUBKTNV-1" vertex="1">
          <mxGeometry x="565" y="160" width="90" height="40" as="geometry" />
        </mxCell>
        <mxCell id="p_SPjtKvWzL-hsWBa0IK-4" value="&lt;span style=&quot;font-size: 10px&quot;&gt;Принять сданный билет&lt;/span&gt;&lt;span style=&quot;color: rgba(0 , 0 , 0 , 0) ; font-family: monospace ; font-size: 0px&quot;&gt;%3CmxGraphModel%3E%3Croot%3E%3CmxCell%20id%3D%220%22%2F%3E%3CmxCell%20id%3D%221%22%20parent%3D%220%22%2F%3E%3CmxCell%20id%3D%222%22%20value%3D%22%26lt%3Bspan%20style%3D%26quot%3Bfont-size%3A%2010px%26quot%3B%26gt%3B%D0%9F%D1%80%D0%BE%D0%B4%D0%B0%D1%82%D1%8C%20%D0%B1%D0%B8%D0%BB%D0%B5%D1%82%26lt%3B%2Fspan%26gt%3B%22%20style%3D%22ellipse%3BwhiteSpace%3Dwrap%3Bhtml%3D1%3B%22%20vertex%3D%221%22%20parent%3D%221%22%3E%3CmxGeometry%20x%3D%22580%22%20y%3D%22135%22%20width%3D%2290%22%20height%3D%2240%22%20as%3D%22geometry%22%2F%3E%3C%2FmxCell%3E%3C%2Froot%3E%3C%2FmxGraphModel%3E&lt;/span&gt;" style="ellipse;whiteSpace=wrap;html=1;" parent="WIyWlLk6GJQsqaUBKTNV-1" vertex="1">
          <mxGeometry x="565" y="210" width="95" height="45" as="geometry" />
        </mxCell>
        <mxCell id="p_SPjtKvWzL-hsWBa0IK-5" value="&lt;span style=&quot;font-size: 10px&quot;&gt;Уйти на перерыв&lt;/span&gt;" style="ellipse;whiteSpace=wrap;html=1;" parent="WIyWlLk6GJQsqaUBKTNV-1" vertex="1">
          <mxGeometry x="570" y="260" width="90" height="40" as="geometry" />
        </mxCell>
        <mxCell id="p_SPjtKvWzL-hsWBa0IK-7" value="&lt;span style=&quot;font-size: 10px&quot;&gt;Предоставить&lt;br&gt;отчет&lt;/span&gt;" style="ellipse;whiteSpace=wrap;html=1;" parent="WIyWlLk6GJQsqaUBKTNV-1" vertex="1">
          <mxGeometry x="557.5" y="110" width="90" height="40" as="geometry" />
        </mxCell>
        <mxCell id="p_SPjtKvWzL-hsWBa0IK-8" value="&lt;span style=&quot;font-size: 10px&quot;&gt;Закрыться&amp;nbsp;&lt;/span&gt;" style="ellipse;whiteSpace=wrap;html=1;" parent="WIyWlLk6GJQsqaUBKTNV-1" vertex="1">
          <mxGeometry x="572.5" y="310" width="85" height="40" as="geometry" />
        </mxCell>
        <mxCell id="p_SPjtKvWzL-hsWBa0IK-10" value="&lt;span style=&quot;font-size: 10px&quot;&gt;Сообщить о задержке отправления&lt;/span&gt;" style="ellipse;whiteSpace=wrap;html=1;" parent="WIyWlLk6GJQsqaUBKTNV-1" vertex="1">
          <mxGeometry x="545" y="50" width="110" height="50" as="geometry" />
        </mxCell>
        <mxCell id="p_SPjtKvWzL-hsWBa0IK-11" value="&lt;span style=&quot;font-size: 10px&quot;&gt;Если другие 2 кассы работают&amp;nbsp;&lt;/span&gt;" style="ellipse;whiteSpace=wrap;html=1;" parent="WIyWlLk6GJQsqaUBKTNV-1" vertex="1">
          <mxGeometry x="260" y="255" width="110" height="50" as="geometry" />
        </mxCell>
        <mxCell id="p_SPjtKvWzL-hsWBa0IK-12" value="&lt;span style=&quot;font-size: 10px&quot;&gt;После завершения принятой заявки&lt;/span&gt;" style="ellipse;whiteSpace=wrap;html=1;" parent="WIyWlLk6GJQsqaUBKTNV-1" vertex="1">
          <mxGeometry x="450" y="290" width="100" height="47.5" as="geometry" />
        </mxCell>
        <mxCell id="p_SPjtKvWzL-hsWBa0IK-15" value="" style="pointerEvents=1;shadow=0;dashed=0;html=1;strokeColor=none;fillColor=#505050;labelPosition=center;verticalLabelPosition=bottom;verticalAlign=top;outlineConnect=0;align=center;shape=mxgraph.office.security.role_group;" parent="WIyWlLk6GJQsqaUBKTNV-1" vertex="1">
          <mxGeometry x="740" y="-46" width="59" height="56" as="geometry" />
        </mxCell>
        <mxCell id="p_SPjtKvWzL-hsWBa0IK-20" value="" style="endArrow=none;html=1;entryX=0;entryY=0.5;entryDx=0;entryDy=0;" parent="WIyWlLk6GJQsqaUBKTNV-1" target="L67WB2BqQXpDFs7ZTnaK-0" edge="1">
          <mxGeometry width="50" height="50" relative="1" as="geometry">
            <mxPoint x="130" y="80" as="sourcePoint" />
            <mxPoint x="490" y="40" as="targetPoint" />
          </mxGeometry>
        </mxCell>
        <mxCell id="p_SPjtKvWzL-hsWBa0IK-21" value="" style="endArrow=none;html=1;entryX=0;entryY=0.5;entryDx=0;entryDy=0;" parent="WIyWlLk6GJQsqaUBKTNV-1" target="L67WB2BqQXpDFs7ZTnaK-1" edge="1">
          <mxGeometry width="50" height="50" relative="1" as="geometry">
            <mxPoint x="130" y="80" as="sourcePoint" />
            <mxPoint x="170" y="40" as="targetPoint" />
          </mxGeometry>
        </mxCell>
        <mxCell id="p_SPjtKvWzL-hsWBa0IK-22" style="edgeStyle=orthogonalEdgeStyle;rounded=0;orthogonalLoop=1;jettySize=auto;html=1;exitX=0.8;exitY=0.5;exitDx=0;exitDy=0;exitPerimeter=0;entryX=0.81;entryY=0.11;entryDx=0;entryDy=0;entryPerimeter=0;" parent="WIyWlLk6GJQsqaUBKTNV-1" source="f7wdTwSCjIjWg6UEDFdK-22" target="f7wdTwSCjIjWg6UEDFdK-22" edge="1">
          <mxGeometry relative="1" as="geometry" />
        </mxCell>
        <mxCell id="p_SPjtKvWzL-hsWBa0IK-23" value="" style="endArrow=none;html=1;exitX=0;exitY=0.5;exitDx=0;exitDy=0;" parent="WIyWlLk6GJQsqaUBKTNV-1" source="L67WB2BqQXpDFs7ZTnaK-2" edge="1">
          <mxGeometry width="50" height="50" relative="1" as="geometry">
            <mxPoint x="130" y="190" as="sourcePoint" />
            <mxPoint x="130" y="80" as="targetPoint" />
          </mxGeometry>
        </mxCell>
        <mxCell id="p_SPjtKvWzL-hsWBa0IK-33" value="" style="endArrow=none;html=1;exitX=1;exitY=0.5;exitDx=0;exitDy=0;" parent="WIyWlLk6GJQsqaUBKTNV-1" source="p_SPjtKvWzL-hsWBa0IK-5" edge="1">
          <mxGeometry width="50" height="50" relative="1" as="geometry">
            <mxPoint x="680" y="290" as="sourcePoint" />
            <mxPoint x="740" y="260" as="targetPoint" />
          </mxGeometry>
        </mxCell>
        <mxCell id="p_SPjtKvWzL-hsWBa0IK-34" value="" style="endArrow=none;html=1;exitX=1;exitY=0.5;exitDx=0;exitDy=0;" parent="WIyWlLk6GJQsqaUBKTNV-1" source="p_SPjtKvWzL-hsWBa0IK-4" edge="1">
          <mxGeometry width="50" height="50" relative="1" as="geometry">
            <mxPoint x="675" y="270" as="sourcePoint" />
            <mxPoint x="740" y="260" as="targetPoint" />
          </mxGeometry>
        </mxCell>
        <mxCell id="p_SPjtKvWzL-hsWBa0IK-35" value="" style="endArrow=none;html=1;exitX=1;exitY=0.5;exitDx=0;exitDy=0;" parent="WIyWlLk6GJQsqaUBKTNV-1" source="p_SPjtKvWzL-hsWBa0IK-7" edge="1">
          <mxGeometry width="50" height="50" relative="1" as="geometry">
            <mxPoint x="680" y="340" as="sourcePoint" />
            <mxPoint x="740" y="260" as="targetPoint" />
          </mxGeometry>
        </mxCell>
        <mxCell id="p_SPjtKvWzL-hsWBa0IK-36" value="" style="endArrow=none;html=1;exitX=1;exitY=0.5;exitDx=0;exitDy=0;" parent="WIyWlLk6GJQsqaUBKTNV-1" source="p_SPjtKvWzL-hsWBa0IK-1" edge="1">
          <mxGeometry width="50" height="50" relative="1" as="geometry">
            <mxPoint x="670" y="270" as="sourcePoint" />
            <mxPoint x="740" y="260" as="targetPoint" />
          </mxGeometry>
        </mxCell>
        <mxCell id="p_SPjtKvWzL-hsWBa0IK-37" value="" style="endArrow=none;html=1;exitX=1;exitY=0.5;exitDx=0;exitDy=0;" parent="WIyWlLk6GJQsqaUBKTNV-1" source="p_SPjtKvWzL-hsWBa0IK-10" edge="1">
          <mxGeometry width="50" height="50" relative="1" as="geometry">
            <mxPoint x="680" y="425" as="sourcePoint" />
            <mxPoint x="740" y="260" as="targetPoint" />
          </mxGeometry>
        </mxCell>
        <mxCell id="p_SPjtKvWzL-hsWBa0IK-41" value="" style="endArrow=none;dashed=1;html=1;exitX=1;exitY=0.5;exitDx=0;exitDy=0;entryX=0;entryY=0.5;entryDx=0;entryDy=0;" parent="WIyWlLk6GJQsqaUBKTNV-1" source="L67WB2BqQXpDFs7ZTnaK-0" target="L67WB2BqQXpDFs7ZTnaK-5" edge="1">
          <mxGeometry width="50" height="50" relative="1" as="geometry">
            <mxPoint x="450" y="210" as="sourcePoint" />
            <mxPoint x="500" y="160" as="targetPoint" />
          </mxGeometry>
        </mxCell>
        <mxCell id="p_SPjtKvWzL-hsWBa0IK-42" value="" style="endArrow=none;dashed=1;html=1;exitX=1;exitY=0.5;exitDx=0;exitDy=0;" parent="WIyWlLk6GJQsqaUBKTNV-1" source="L67WB2BqQXpDFs7ZTnaK-1" target="L67WB2BqQXpDFs7ZTnaK-6" edge="1">
          <mxGeometry width="50" height="50" relative="1" as="geometry">
            <mxPoint x="250" y="120" as="sourcePoint" />
            <mxPoint x="311" y="75" as="targetPoint" />
          </mxGeometry>
        </mxCell>
        <mxCell id="p_SPjtKvWzL-hsWBa0IK-43" value="" style="endArrow=none;dashed=1;html=1;exitX=1;exitY=0.5;exitDx=0;exitDy=0;entryX=0;entryY=0.5;entryDx=0;entryDy=0;" parent="WIyWlLk6GJQsqaUBKTNV-1" source="L67WB2BqQXpDFs7ZTnaK-4" target="p_SPjtKvWzL-hsWBa0IK-1" edge="1">
          <mxGeometry width="50" height="50" relative="1" as="geometry">
            <mxPoint x="450" y="60" as="sourcePoint" />
            <mxPoint x="570" y="170" as="targetPoint" />
          </mxGeometry>
        </mxCell>
        <mxCell id="p_SPjtKvWzL-hsWBa0IK-44" value="" style="endArrow=none;dashed=1;html=1;exitX=1;exitY=0.5;exitDx=0;exitDy=0;entryX=0;entryY=0.5;entryDx=0;entryDy=0;" parent="WIyWlLk6GJQsqaUBKTNV-1" source="L67WB2BqQXpDFs7ZTnaK-0" target="L67WB2BqQXpDFs7ZTnaK-4" edge="1">
          <mxGeometry width="50" height="50" relative="1" as="geometry">
            <mxPoint x="450" y="60" as="sourcePoint" />
            <mxPoint x="270" y="-30" as="targetPoint" />
          </mxGeometry>
        </mxCell>
        <mxCell id="p_SPjtKvWzL-hsWBa0IK-45" value="" style="endArrow=none;dashed=1;html=1;entryX=0;entryY=0.5;entryDx=0;entryDy=0;exitX=1;exitY=0.5;exitDx=0;exitDy=0;" parent="WIyWlLk6GJQsqaUBKTNV-1" source="L67WB2BqQXpDFs7ZTnaK-1" target="L67WB2BqQXpDFs7ZTnaK-5" edge="1">
          <mxGeometry width="50" height="50" relative="1" as="geometry">
            <mxPoint x="264" y="40" as="sourcePoint" />
            <mxPoint x="314" y="-10" as="targetPoint" />
          </mxGeometry>
        </mxCell>
        <mxCell id="p_SPjtKvWzL-hsWBa0IK-47" value="" style="endArrow=none;dashed=1;html=1;exitX=1;exitY=0.5;exitDx=0;exitDy=0;entryX=0;entryY=0.5;entryDx=0;entryDy=0;" parent="WIyWlLk6GJQsqaUBKTNV-1" source="L67WB2BqQXpDFs7ZTnaK-2" target="L67WB2BqQXpDFs7ZTnaK-8" edge="1">
          <mxGeometry width="50" height="50" relative="1" as="geometry">
            <mxPoint x="260" y="95" as="sourcePoint" />
            <mxPoint x="319" y="95" as="targetPoint" />
          </mxGeometry>
        </mxCell>
        <mxCell id="p_SPjtKvWzL-hsWBa0IK-48" value="" style="endArrow=none;dashed=1;html=1;entryX=1;entryY=0.5;entryDx=0;entryDy=0;exitX=0;exitY=0.5;exitDx=0;exitDy=0;" parent="WIyWlLk6GJQsqaUBKTNV-1" source="p_SPjtKvWzL-hsWBa0IK-4" target="L67WB2BqQXpDFs7ZTnaK-5" edge="1">
          <mxGeometry width="50" height="50" relative="1" as="geometry">
            <mxPoint x="432" y="153" as="sourcePoint" />
            <mxPoint x="530" y="170" as="targetPoint" />
          </mxGeometry>
        </mxCell>
        <mxCell id="p_SPjtKvWzL-hsWBa0IK-49" value="" style="endArrow=none;dashed=1;html=1;exitX=1;exitY=0.5;exitDx=0;exitDy=0;entryX=0;entryY=0.5;entryDx=0;entryDy=0;" parent="WIyWlLk6GJQsqaUBKTNV-1" source="L67WB2BqQXpDFs7ZTnaK-6" target="p_SPjtKvWzL-hsWBa0IK-4" edge="1">
          <mxGeometry width="50" height="50" relative="1" as="geometry">
            <mxPoint x="450" y="210" as="sourcePoint" />
            <mxPoint x="500" y="160" as="targetPoint" />
          </mxGeometry>
        </mxCell>
        <mxCell id="p_SPjtKvWzL-hsWBa0IK-50" value="" style="endArrow=none;dashed=1;html=1;exitX=1;exitY=0.5;exitDx=0;exitDy=0;entryX=0;entryY=0.5;entryDx=0;entryDy=0;" parent="WIyWlLk6GJQsqaUBKTNV-1" source="L67WB2BqQXpDFs7ZTnaK-5" target="p_SPjtKvWzL-hsWBa0IK-1" edge="1">
          <mxGeometry width="50" height="50" relative="1" as="geometry">
            <mxPoint x="450" y="210" as="sourcePoint" />
            <mxPoint x="550" y="170" as="targetPoint" />
          </mxGeometry>
        </mxCell>
        <mxCell id="p_SPjtKvWzL-hsWBa0IK-51" value="" style="endArrow=none;dashed=1;html=1;exitX=1;exitY=0.5;exitDx=0;exitDy=0;entryX=0;entryY=0.5;entryDx=0;entryDy=0;" parent="WIyWlLk6GJQsqaUBKTNV-1" source="L67WB2BqQXpDFs7ZTnaK-8" target="p_SPjtKvWzL-hsWBa0IK-1" edge="1">
          <mxGeometry width="50" height="50" relative="1" as="geometry">
            <mxPoint x="450" y="210" as="sourcePoint" />
            <mxPoint x="500" y="160" as="targetPoint" />
          </mxGeometry>
        </mxCell>
        <mxCell id="p_SPjtKvWzL-hsWBa0IK-52" value="" style="endArrow=none;dashed=1;html=1;exitX=1;exitY=0.5;exitDx=0;exitDy=0;entryX=0;entryY=0.5;entryDx=0;entryDy=0;" parent="WIyWlLk6GJQsqaUBKTNV-1" source="p_SPjtKvWzL-hsWBa0IK-11" target="p_SPjtKvWzL-hsWBa0IK-5" edge="1">
          <mxGeometry width="50" height="50" relative="1" as="geometry">
            <mxPoint x="400" y="300" as="sourcePoint" />
            <mxPoint x="570" y="295" as="targetPoint" />
          </mxGeometry>
        </mxCell>
        <mxCell id="p_SPjtKvWzL-hsWBa0IK-56" value="" style="endArrow=none;dashed=1;html=1;entryX=0;entryY=0.5;entryDx=0;entryDy=0;exitX=1;exitY=0.5;exitDx=0;exitDy=0;" parent="WIyWlLk6GJQsqaUBKTNV-1" source="p_SPjtKvWzL-hsWBa0IK-12" target="p_SPjtKvWzL-hsWBa0IK-8" edge="1">
          <mxGeometry width="50" height="50" relative="1" as="geometry">
            <mxPoint x="530" y="360" as="sourcePoint" />
            <mxPoint x="610" y="340" as="targetPoint" />
          </mxGeometry>
        </mxCell>
        <mxCell id="p_SPjtKvWzL-hsWBa0IK-57" value="" style="endArrow=none;dashed=1;html=1;exitX=1;exitY=0.5;exitDx=0;exitDy=0;entryX=0;entryY=0.5;entryDx=0;entryDy=0;" parent="WIyWlLk6GJQsqaUBKTNV-1" source="p_SPjtKvWzL-hsWBa0IK-12" target="p_SPjtKvWzL-hsWBa0IK-5" edge="1">
          <mxGeometry width="50" height="50" relative="1" as="geometry">
            <mxPoint x="560" y="390" as="sourcePoint" />
            <mxPoint x="610" y="340" as="targetPoint" />
          </mxGeometry>
        </mxCell>
        <mxCell id="p_SPjtKvWzL-hsWBa0IK-58" value="" style="endArrow=none;html=1;entryX=1;entryY=0.5;entryDx=0;entryDy=0;" parent="WIyWlLk6GJQsqaUBKTNV-1" target="p_SPjtKvWzL-hsWBa0IK-8" edge="1">
          <mxGeometry width="50" height="50" relative="1" as="geometry">
            <mxPoint x="740" y="260" as="sourcePoint" />
            <mxPoint x="550" y="400" as="targetPoint" />
          </mxGeometry>
        </mxCell>
        <mxCell id="ywaL2FlmHNc8roGdRpwy-1" value="&lt;span style=&quot;font-size: 10px&quot;&gt;Направить очередь в другие кассы без ее сохранения&lt;/span&gt;" style="shape=note;whiteSpace=wrap;html=1;backgroundOutline=1;darkOpacity=0.05;" parent="WIyWlLk6GJQsqaUBKTNV-1" vertex="1">
          <mxGeometry x="370" y="300" width="80" height="100" as="geometry" />
        </mxCell>
        <mxCell id="ywaL2FlmHNc8roGdRpwy-2" value="&lt;span style=&quot;font-size: 10px&quot;&gt;Информировать о наличии свободных мест&amp;nbsp;&lt;/span&gt;" style="ellipse;whiteSpace=wrap;html=1;" parent="WIyWlLk6GJQsqaUBKTNV-1" vertex="1">
          <mxGeometry x="540" y="-20" width="117.5" height="60" as="geometry" />
        </mxCell>
        <mxCell id="ywaL2FlmHNc8roGdRpwy-3" value="" style="endArrow=none;html=1;entryX=1;entryY=0.5;entryDx=0;entryDy=0;" parent="WIyWlLk6GJQsqaUBKTNV-1" target="ywaL2FlmHNc8roGdRpwy-2" edge="1">
          <mxGeometry width="50" height="50" relative="1" as="geometry">
            <mxPoint x="730" y="-10" as="sourcePoint" />
            <mxPoint x="620" y="-120" as="targetPoint" />
          </mxGeometry>
        </mxCell>
        <mxCell id="ywaL2FlmHNc8roGdRpwy-4" value="" style="endArrow=none;html=1;entryX=1;entryY=0.5;entryDx=0;entryDy=0;" parent="WIyWlLk6GJQsqaUBKTNV-1" target="p_SPjtKvWzL-hsWBa0IK-10" edge="1">
          <mxGeometry width="50" height="50" relative="1" as="geometry">
            <mxPoint x="730" y="-10" as="sourcePoint" />
            <mxPoint x="664.9999999999995" y="-45" as="targetPoint" />
          </mxGeometry>
        </mxCell>
        <mxCell id="ywaL2FlmHNc8roGdRpwy-5" value="" style="endArrow=none;html=1;entryX=1;entryY=0.5;entryDx=0;entryDy=0;" parent="WIyWlLk6GJQsqaUBKTNV-1" target="p_SPjtKvWzL-hsWBa0IK-7" edge="1">
          <mxGeometry width="50" height="50" relative="1" as="geometry">
            <mxPoint x="730" y="-10" as="sourcePoint" />
            <mxPoint x="650" y="60" as="targetPoint" />
          </mxGeometry>
        </mxCell>
        <mxCell id="ywaL2FlmHNc8roGdRpwy-6" value="&lt;font style=&quot;font-size: 10px&quot;&gt;Прием жалоб и заявлений&amp;nbsp;&lt;/font&gt;" style="ellipse;whiteSpace=wrap;html=1;" parent="WIyWlLk6GJQsqaUBKTNV-1" vertex="1">
          <mxGeometry x="565" y="-70" width="92.5" height="40" as="geometry" />
        </mxCell>
        <mxCell id="ywaL2FlmHNc8roGdRpwy-7" value="" style="endArrow=none;html=1;entryX=1;entryY=0.5;entryDx=0;entryDy=0;" parent="WIyWlLk6GJQsqaUBKTNV-1" target="ywaL2FlmHNc8roGdRpwy-6" edge="1">
          <mxGeometry width="50" height="50" relative="1" as="geometry">
            <mxPoint x="730" y="-10" as="sourcePoint" />
            <mxPoint x="667.500000000002" y="25" as="targetPoint" />
          </mxGeometry>
        </mxCell>
        <mxCell id="ywaL2FlmHNc8roGdRpwy-8" value="" style="endArrow=none;dashed=1;html=1;exitX=1;exitY=0.5;exitDx=0;exitDy=0;" parent="WIyWlLk6GJQsqaUBKTNV-1" source="L67WB2BqQXpDFs7ZTnaK-2" edge="1">
          <mxGeometry width="50" height="50" relative="1" as="geometry">
            <mxPoint x="260" y="90" as="sourcePoint" />
            <mxPoint x="310" y="30" as="targetPoint" />
          </mxGeometry>
        </mxCell>
        <mxCell id="ywaL2FlmHNc8roGdRpwy-9" value="" style="endArrow=none;dashed=1;html=1;exitX=1;exitY=0.5;exitDx=0;exitDy=0;" parent="WIyWlLk6GJQsqaUBKTNV-1" source="L67WB2BqQXpDFs7ZTnaK-8" edge="1">
          <mxGeometry width="50" height="50" relative="1" as="geometry">
            <mxPoint x="435.7500000000001" y="160" as="sourcePoint" />
            <mxPoint x="560" y="230" as="targetPoint" />
          </mxGeometry>
        </mxCell>
        <mxCell id="ywaL2FlmHNc8roGdRpwy-10" value="&lt;font style=&quot;font-size: 10px&quot;&gt;Подать жалобу/заявление&lt;/font&gt;" style="ellipse;whiteSpace=wrap;html=1;" parent="WIyWlLk6GJQsqaUBKTNV-1" vertex="1">
          <mxGeometry x="160" y="160" width="90" height="40" as="geometry" />
        </mxCell>
        <mxCell id="ywaL2FlmHNc8roGdRpwy-11" value="" style="endArrow=none;html=1;exitX=0;exitY=0.5;exitDx=0;exitDy=0;" parent="WIyWlLk6GJQsqaUBKTNV-1" source="ywaL2FlmHNc8roGdRpwy-10" edge="1">
          <mxGeometry width="50" height="50" relative="1" as="geometry">
            <mxPoint x="170" y="140" as="sourcePoint" />
            <mxPoint x="131" y="80" as="targetPoint" />
          </mxGeometry>
        </mxCell>
        <mxCell id="yp4dw3SsH-dZQDgU9bYl-0" value="Пассажир" style="text;html=1;strokeColor=none;fillColor=none;align=center;verticalAlign=middle;whiteSpace=wrap;rounded=0;" vertex="1" parent="WIyWlLk6GJQsqaUBKTNV-1">
          <mxGeometry x="75" y="120" width="40" height="20" as="geometry" />
        </mxCell>
        <mxCell id="yp4dw3SsH-dZQDgU9bYl-1" value="Администрация" style="text;html=1;strokeColor=none;fillColor=none;align=center;verticalAlign=middle;whiteSpace=wrap;rounded=0;" vertex="1" parent="WIyWlLk6GJQsqaUBKTNV-1">
          <mxGeometry x="749.5" y="10" width="40" height="20" as="geometry" />
        </mxCell>
        <mxCell id="yp4dw3SsH-dZQDgU9bYl-3" value="Касса" style="text;html=1;strokeColor=none;fillColor=none;align=center;verticalAlign=middle;whiteSpace=wrap;rounded=0;" vertex="1" parent="WIyWlLk6GJQsqaUBKTNV-1">
          <mxGeometry x="759" y="279" width="40" height="20" as="geometry" />
        </mxCell>
      </root>
    </mxGraphModel>
  </diagram>
</mxfile>
